Point(1) = {144.4610062816786, -174.4610062816786, 1192.303360199242, 1e+22};
Point(2) = {174.4610062816786, -174.4610062816786, 1192.303360199242, 1e+22};
Point(3) = {144.4610062816786, -184.4610062816786, 1192.303360199242, 1e+22};
Point(4) = {184.4610062816786, -184.4610062816786, 1192.303360199242, 1e+22};
Point(5) = {166.121324727377, -166.121324727377, 1234.00176797075, 1e+22};
Point(6) = {136.121324727377, -166.121324727377, 1234.00176797075, 1e+22};
Point(7) = {176.121324727377, -176.121324727377, 1234.00176797075, 1e+22};
Point(8) = {136.121324727377, -176.121324727377, 1234.00176797075, 1e+22};
Point(9) = {157.781643173077, -157.781643173077, 1275.70017574225, 1e+22};
Point(10) = {127.781643173077, -157.781643173077, 1275.70017574225, 1e+22};
Point(11) = {167.781643173077, -167.781643173077, 1275.70017574225, 1e+22};
Point(12) = {127.781643173077, -167.781643173077, 1275.70017574225, 1e+22};
Point(13) = {149.441961618776, -149.441961618776, 1317.39858351376, 1e+22};
Point(14) = {119.441961618776, -149.441961618776, 1317.39858351376, 1e+22};
Point(15) = {159.441961618776, -159.441961618776, 1317.39858351376, 1e+22};
Point(16) = {119.441961618776, -159.441961618776, 1317.39858351376, 1e+22};
Point(17) = {141.102280064475, -141.102280064475, 1359.09699128526, 1e+22};
Point(18) = {111.102280064475, -141.102280064475, 1359.09699128526, 1e+22};
Point(19) = {151.102280064475, -151.102280064475, 1359.09699128526, 1e+22};
Point(20) = {111.102280064475, -151.102280064475, 1359.09699128526, 1e+22};
Point(21) = {132.762598510174, -132.762598510174, 1400.79539905677, 1e+22};
Point(22) = {102.762598510174, -132.762598510174, 1400.79539905677, 1e+22};
Point(23) = {142.762598510174, -142.762598510174, 1400.79539905677, 1e+22};
Point(24) = {102.762598510174, -142.762598510174, 1400.79539905677, 1e+22};
Point(25) = {124.4229169558731, -124.4229169558731, 1442.493806828268, 1e+22};
Point(26) = {94.42291695587312, -124.4229169558731, 1442.493806828268, 1e+22};
Point(27) = {134.4229169558731, -134.4229169558731, 1442.493806828268, 1e+22};
Point(28) = {94.42291695587312, -134.4229169558731, 1442.493806828268, 1e+22};
Point(29) = {144.4610062816786, -184.4610062816786, 1192.303360199242, 1e+22};
Point(30) = {144.4610062816786, -174.4610062816786, 1192.303360199242, 1e+22};
Point(31) = {114.461006281678, -184.461006281678, 1192.30336019925, 1e+22};
Point(32) = {114.461006281678, -174.461006281678, 1192.30336019925, 1e+22};
Point(33) = {136.121324727377, -166.121324727377, 1234.00176797075, 1e+22};
Point(34) = {136.121324727377, -176.121324727377, 1234.00176797075, 1e+22};
Point(35) = {106.121324727377, -166.121324727377, 1234.00176797075, 1e+22};
Point(36) = {106.121324727377, -176.121324727377, 1234.00176797075, 1e+22};
Point(37) = {127.781643173077, -157.781643173077, 1275.70017574225, 1e+22};
Point(38) = {127.781643173077, -167.781643173077, 1275.70017574225, 1e+22};
Point(39) = {97.7816431730768, -157.781643173077, 1275.70017574225, 1e+22};
Point(40) = {97.7816431730768, -167.781643173077, 1275.70017574225, 1e+22};
Point(41) = {119.441961618777, -149.441961618776, 1317.39858351376, 1e+22};
Point(42) = {119.441961618777, -159.441961618776, 1317.39858351376, 1e+22};
Point(43) = {89.4419616187766, -149.441961618776, 1317.39858351376, 1e+22};
Point(44) = {89.4419616187766, -159.441961618776, 1317.39858351376, 1e+22};
Point(45) = {111.102280064477, -141.102280064475, 1359.09699128526, 1e+22};
Point(46) = {111.102280064477, -151.102280064475, 1359.09699128526, 1e+22};
Point(47) = {81.1022800644766, -141.102280064475, 1359.09699128526, 1e+22};
Point(48) = {81.1022800644766, -151.102280064475, 1359.09699128526, 1e+22};
Point(49) = {102.762598510177, -132.762598510174, 1400.79539905677, 1e+22};
Point(50) = {102.762598510177, -142.762598510174, 1400.79539905677, 1e+22};
Point(51) = {72.762598510177, -132.762598510174, 1400.79539905677, 1e+22};
Point(52) = {72.762598510177, -142.762598510174, 1400.79539905677, 1e+22};
Point(53) = {94.42291695587785, -124.4229169558731, 1442.493806828269, 1e+22};
Point(54) = {94.42291695587785, -134.4229169558731, 1442.493806828269, 1e+22};
Point(55) = {64.42291695587726, -124.4229169558725, 1442.493806828279, 1e+22};
Point(56) = {64.42291695587726, -134.4229169558726, 1442.493806828279, 1e+22};
Point(57) = {72.762598510177, -132.762598510174, 1400.79539905677, 1e+22};
Point(58) = {64.42291695587726, -124.4229169558725, 1442.493806828279, 1e+22};
Point(59) = {72.762598510177, -142.762598510174, 1400.79539905677, 1e+22};
Point(60) = {64.42291695587726, -134.4229169558726, 1442.493806828279, 1e+22};
Point(61) = {32.21145847794086, -124.4229169558725, 1442.493806828279, 1e+22};
Point(62) = {40.5511400322406, -132.762598510174, 1400.79539905677, 1e+22};
Point(63) = {32.21145847794086, -134.4229169558726, 1442.493806828279, 1e+22};
Point(64) = {40.5511400322406, -142.762598510174, 1400.79539905677, 1e+22};
Point(65) = {0, -124.422916955873, 1442.49380682827, 1e+22};
Point(66) = {0, -132.762598510174, 1400.79539905677, 1e+22};
Point(67) = {0, -134.422916955873, 1442.49380682827, 1e+22};
Point(68) = {0, -142.762598510174, 1400.79539905677, 1e+22};
Line(1) = {1, 2};
Line(2) = {1, 3};
Line(3) = {3, 4};
Line(4) = {2, 4};
Line(5) = {2, 5};
Line(6) = {1, 6};
Line(7) = {6, 5};
Line(8) = {4, 7};
Line(9) = {3, 8};
Line(10) = {8, 7};
Line(11) = {5, 7};
Line(12) = {6, 8};
Line(13) = {5, 9};
Line(14) = {6, 10};
Line(15) = {10, 9};
Line(16) = {7, 11};
Line(17) = {8, 12};
Line(18) = {12, 11};
Line(19) = {9, 11};
Line(20) = {10, 12};
Line(21) = {9, 13};
Line(22) = {10, 14};
Line(23) = {14, 13};
Line(24) = {11, 15};
Line(25) = {12, 16};
Line(26) = {16, 15};
Line(27) = {13, 15};
Line(28) = {14, 16};
Line(29) = {13, 17};
Line(30) = {14, 18};
Line(31) = {18, 17};
Line(32) = {15, 19};
Line(33) = {16, 20};
Line(34) = {20, 19};
Line(35) = {17, 19};
Line(36) = {18, 20};
Line(37) = {17, 21};
Line(38) = {18, 22};
Line(39) = {22, 21};
Line(40) = {19, 23};
Line(41) = {20, 24};
Line(42) = {24, 23};
Line(43) = {21, 23};
Line(44) = {22, 24};
Line(45) = {21, 25};
Line(46) = {22, 26};
Line(47) = {26, 25};
Line(48) = {23, 27};
Line(49) = {24, 28};
Line(50) = {28, 27};
Line(51) = {25, 27};
Line(52) = {26, 28};
Line(53) = {29, 30};
Line(54) = {31, 29};
Line(55) = {32, 31};
Line(56) = {30, 32};
Line(57) = {30, 33};
Line(58) = {29, 34};
Line(59) = {34, 33};
Line(60) = {32, 35};
Line(61) = {31, 36};
Line(62) = {35, 36};
Line(63) = {33, 35};
Line(64) = {36, 34};
Line(65) = {33, 37};
Line(66) = {34, 38};
Line(67) = {38, 37};
Line(68) = {35, 39};
Line(69) = {36, 40};
Line(70) = {39, 40};
Line(71) = {37, 39};
Line(72) = {40, 38};
Line(73) = {37, 41};
Line(74) = {38, 42};
Line(75) = {42, 41};
Line(76) = {39, 43};
Line(77) = {40, 44};
Line(78) = {43, 44};
Line(79) = {41, 43};
Line(80) = {44, 42};
Line(81) = {41, 45};
Line(82) = {42, 46};
Line(83) = {46, 45};
Line(84) = {43, 47};
Line(85) = {44, 48};
Line(86) = {47, 48};
Line(87) = {45, 47};
Line(88) = {48, 46};
Line(89) = {45, 49};
Line(90) = {46, 50};
Line(91) = {50, 49};
Line(92) = {47, 51};
Line(93) = {48, 52};
Line(94) = {51, 52};
Line(95) = {49, 51};
Line(96) = {52, 50};
Line(97) = {49, 53};
Line(98) = {50, 54};
Line(99) = {54, 53};
Line(100) = {51, 55};
Line(101) = {52, 56};
Line(102) = {55, 56};
Line(103) = {53, 55};
Line(104) = {56, 54};
Line(105) = {57, 58};
Line(106) = {57, 59};
Line(107) = {59, 60};
Line(108) = {58, 60};
Line(109) = {58, 61};
Line(110) = {62, 61};
Line(111) = {57, 62};
Line(112) = {60, 63};
Line(113) = {64, 63};
Line(114) = {59, 64};
Line(115) = {61, 63};
Line(116) = {62, 64};
Line(117) = {61, 65};
Line(118) = {65, 66};
Line(119) = {62, 66};
Line(120) = {63, 67};
Line(121) = {68, 67};
Line(122) = {64, 68};
Line(123) = {67, 65};
Line(124) = {66, 68};
Line Loop(1) = {1, 4, -3, -2};
Plane Surface(1) = {1};
Line Loop(2) = {5, -7, -6, 1};
Plane Surface(2) = {2};
Line Loop(3) = {8, -10, -9, 3};
Plane Surface(3) = {3};
Line Loop(4) = {4, 8, -11, -5};
Plane Surface(4) = {4};
Line Loop(5) = {2, 9, -12, -6};
Plane Surface(5) = {5};
Line Loop(6) = {7, 11, -10, -12};
Plane Surface(6) = {6};
Line Loop(7) = {13, -15, -14, 7};
Plane Surface(7) = {7};
Line Loop(8) = {16, -18, -17, 10};
Plane Surface(8) = {8};
Line Loop(9) = {11, 16, -19, -13};
Plane Surface(9) = {9};
Line Loop(10) = {12, 17, -20, -14};
Plane Surface(10) = {10};
Line Loop(11) = {15, 19, -18, -20};
Plane Surface(11) = {11};
Line Loop(12) = {21, -23, -22, 15};
Plane Surface(12) = {12};
Line Loop(13) = {24, -26, -25, 18};
Plane Surface(13) = {13};
Line Loop(14) = {19, 24, -27, -21};
Plane Surface(14) = {14};
Line Loop(15) = {20, 25, -28, -22};
Plane Surface(15) = {15};
Line Loop(16) = {23, 27, -26, -28};
Plane Surface(16) = {16};
Line Loop(17) = {29, -31, -30, 23};
Plane Surface(17) = {17};
Line Loop(18) = {32, -34, -33, 26};
Plane Surface(18) = {18};
Line Loop(19) = {27, 32, -35, -29};
Plane Surface(19) = {19};
Line Loop(20) = {28, 33, -36, -30};
Plane Surface(20) = {20};
Line Loop(21) = {31, 35, -34, -36};
Plane Surface(21) = {21};
Line Loop(22) = {37, -39, -38, 31};
Plane Surface(22) = {22};
Line Loop(23) = {40, -42, -41, 34};
Plane Surface(23) = {23};
Line Loop(24) = {35, 40, -43, -37};
Plane Surface(24) = {24};
Line Loop(25) = {36, 41, -44, -38};
Plane Surface(25) = {25};
Line Loop(26) = {39, 43, -42, -44};
Plane Surface(26) = {26};
Line Loop(27) = {45, -47, -46, 39};
Plane Surface(27) = {27};
Line Loop(28) = {48, -50, -49, 42};
Plane Surface(28) = {28};
Line Loop(29) = {43, 48, -51, -45};
Plane Surface(29) = {29};
Line Loop(30) = {44, 49, -52, -46};
Plane Surface(30) = {30};
Line Loop(31) = {47, 51, -50, -52};
Plane Surface(31) = {31};
Line Loop(32) = {53, 56, 55, 54};
Plane Surface(32) = {32};
Line Loop(33) = {57, -59, -58, 53};
Plane Surface(33) = {33};
Line Loop(34) = {60, 62, -61, -55};
Plane Surface(34) = {34};
Line Loop(35) = {56, 60, -63, -57};
Plane Surface(35) = {35};
Line Loop(36) = {54, 58, -64, -61};
Plane Surface(36) = {36};
Line Loop(37) = {59, 63, 62, 64};
Plane Surface(37) = {37};
Line Loop(38) = {65, -67, -66, 59};
Plane Surface(38) = {38};
Line Loop(39) = {68, 70, -69, -62};
Plane Surface(39) = {39};
Line Loop(40) = {63, 68, -71, -65};
Plane Surface(40) = {40};
Line Loop(41) = {64, 66, -72, -69};
Plane Surface(41) = {41};
Line Loop(42) = {67, 71, 70, 72};
Plane Surface(42) = {42};
Line Loop(43) = {73, -75, -74, 67};
Plane Surface(43) = {43};
Line Loop(44) = {76, 78, -77, -70};
Plane Surface(44) = {44};
Line Loop(45) = {71, 76, -79, -73};
Plane Surface(45) = {45};
Line Loop(46) = {72, 74, -80, -77};
Plane Surface(46) = {46};
Line Loop(47) = {75, 79, 78, 80};
Plane Surface(47) = {47};
Line Loop(48) = {81, -83, -82, 75};
Plane Surface(48) = {48};
Line Loop(49) = {84, 86, -85, -78};
Plane Surface(49) = {49};
Line Loop(50) = {79, 84, -87, -81};
Plane Surface(50) = {50};
Line Loop(51) = {80, 82, -88, -85};
Plane Surface(51) = {51};
Line Loop(52) = {83, 87, 86, 88};
Plane Surface(52) = {52};
Line Loop(53) = {89, -91, -90, 83};
Plane Surface(53) = {53};
Line Loop(54) = {92, 94, -93, -86};
Plane Surface(54) = {54};
Line Loop(55) = {87, 92, -95, -89};
Plane Surface(55) = {55};
Line Loop(56) = {88, 90, -96, -93};
Plane Surface(56) = {56};
Line Loop(57) = {91, 95, 94, 96};
Plane Surface(57) = {57};
Line Loop(58) = {97, -99, -98, 91};
Plane Surface(58) = {58};
Line Loop(59) = {100, 102, -101, -94};
Plane Surface(59) = {59};
Line Loop(60) = {95, 100, -103, -97};
Plane Surface(60) = {60};
Line Loop(61) = {96, 98, -104, -101};
Plane Surface(61) = {61};
Line Loop(62) = {99, 103, 102, 104};
Plane Surface(62) = {62};
Line Loop(63) = {105, 108, -107, -106};
Plane Surface(63) = {63};
Line Loop(64) = {109, -110, -111, 105};
Plane Surface(64) = {64};
Line Loop(65) = {112, -113, -114, 107};
Plane Surface(65) = {65};
Line Loop(66) = {108, 112, -115, -109};
Plane Surface(66) = {66};
Line Loop(67) = {106, 114, -116, -111};
Plane Surface(67) = {67};
Line Loop(68) = {110, 115, -113, -116};
Plane Surface(68) = {68};
Line Loop(69) = {117, 118, -119, 110};
Plane Surface(69) = {69};
Line Loop(70) = {120, -121, -122, 113};
Plane Surface(70) = {70};
Line Loop(71) = {115, 120, 123, -117};
Plane Surface(71) = {71};
Line Loop(72) = {116, 122, -124, -119};
Plane Surface(72) = {72};
Line Loop(73) = {123, 118, 124, 121};
Plane Surface(73) = {73};
Surface Loop(1) = {1, 2, 3, 4, 5, 6};
Volume(1) = {1};
Surface Loop(2) = {6, 7, 8, 9, 10, 11};
Volume(2) = {2};
Surface Loop(3) = {11, 12, 13, 14, 15, 16};
Volume(3) = {3};
Surface Loop(4) = {16, 17, 18, 19, 20, 21};
Volume(4) = {4};
Surface Loop(5) = {21, 22, 23, 24, 25, 26};
Volume(5) = {5};
Surface Loop(6) = {26, 27, 28, 29, 30, 31};
Volume(6) = {6};
Surface Loop(7) = {32, 33, 34, 35, 36, 37};
Volume(7) = {7};
Surface Loop(8) = {37, 38, 39, 40, 41, 42};
Volume(8) = {8};
Surface Loop(9) = {42, 43, 44, 45, 46, 47};
Volume(9) = {9};
Surface Loop(10) = {47, 48, 49, 50, 51, 52};
Volume(10) = {10};
Surface Loop(11) = {52, 53, 54, 55, 56, 57};
Volume(11) = {11};
Surface Loop(12) = {57, 58, 59, 60, 61, 62};
Volume(12) = {12};
Surface Loop(13) = {63, 64, 65, 66, 67, 68};
Volume(13) = {13};
Surface Loop(14) = {68, 69, 70, 71, 72, 73};
Volume(14) = {14};
Physical Surface(3) = {2, 4, 7, 9, 12, 14, 17, 19, 22, 24, 27, 29, 35, 40, 45, 50, 55, 60, 64, 69};
Physical Surface(4) = {1, 3, 8, 13, 18, 23, 28, 31, 32, 34, 36, 39, 41, 44, 46, 49, 51, 54, 56, 61, 62, 65, 66, 67, 70, 71, 72, 73};
Physical Volume(1) = {1, 7, 8, 9, 10, 11};
Physical Volume(2) = {2, 3, 4, 5, 6, 12, 13, 14};
